<?xml version="1.0" encoding="UTF-8" standalone="no"?>
<svg xmlns="http://www.w3.org/2000/svg" width="200" height="200" viewBox="0 0 200 200">
  <!-- Background circle (globe) -->
  <circle cx="100" cy="100" r="90" fill="#3498db" />
  
  <!-- Globe grid lines -->
  <ellipse cx="100" cy="100" rx="90" ry="30" fill="none" stroke="#ffffff" stroke-width="2" />
  <ellipse cx="100" cy="100" rx="60" ry="20" fill="none" stroke="#ffffff" stroke-width="2" />
  <ellipse cx="100" cy="100" rx="30" ry="10" fill="none" stroke="#ffffff" stroke-width="2" />
  
  <!-- Vertical grid lines -->
  <line x1="100" y1="10" x2="100" y2="190" stroke="#ffffff" stroke-width="2" />
  <line x1="10" y1="100" x2="190" y2="100" stroke="#ffffff" stroke-width="2" />
  
  <!-- Speech bubble -->
  <path d="M130,60 L160,40 L150,70 Q170,80 170,100 Q170,120 150,130 Q130,140 100,140 Q70,140 50,130 Q30,120 30,100 Q30,80 50,70 Q70,60 100,60 Q115,60 130,60 Z" fill="#ffffff" opacity="0.9" />
  
  <!-- Text lines in speech bubble -->
  <line x1="60" y1="85" x2="140" y2="85" stroke="#3498db" stroke-width="3" />
  <line x1="60" y1="100" x2="140" y2="100" stroke="#3498db" stroke-width="3" />
  <line x1="60" y1="115" x2="120" y2="115" stroke="#3498db" stroke-width="3" />
  
  <!-- App name -->
  <text x="100" y="180" font-family="Arial, sans-serif" font-size="20" font-weight="bold" text-anchor="middle" fill="#ffffff">GlobeTales</text>
</svg>